<?xml version="1.0" encoding="utf-8"?>
<!-- Uploaded to: SVG Repo, www.svgrepo.com, Generator: SVG Repo Mixer Tools -->
<svg width="800px" height="800px" viewBox="0 -4 20 20" xmlns="http://www.w3.org/2000/svg">
  <g id="Lager_14" data-name="Lager 14" transform="translate(-6 -10)">
    <path id="Path_16" data-name="Path 16" d="M15.319,15.909a1.97,1.97,0,0,1,.732-.278,1,1,0,0,1,.679.278l5.732,5.517a2.116,2.116,0,0,0,2.887.01l.03-.028a1.958,1.958,0,0,0,.008-2.854l-8.613-8.267A1.077,1.077,0,0,0,16.051,10a2.115,2.115,0,0,0-.775.287L6.611,18.554a1.959,1.959,0,0,0,.012,2.854l.036.028a2.134,2.134,0,0,0,2.9-.01Z" fill="#040505"/>
  </g>
</svg>